<?xml version="1.0" standalone="no"?>
<!DOCTYPE svg PUBLIC "-//W3C//DTD SVG 20010904//EN"
 "http://www.w3.org/TR/2001/REC-SVG-20010904/DTD/svg10.dtd">
<svg version="1.0" xmlns="http://www.w3.org/2000/svg"
 width="256.000000pt" height="200.000000pt" viewBox="0 0 256.000000 200.000000"
 preserveAspectRatio="xMidYMid meet">

<g transform="translate(0.000000,200.000000) scale(0.100000,-0.100000)"
fill="#000000" stroke="none">
<path d="M707 1973 c-45 -48 -117 -228 -117 -295 0 -10 -19 -30 -42 -45 -70
-44 -108 -84 -108 -113 l0 -27 73 18 c39 10 93 22 119 25 45 6 47 8 77 68 17
35 40 71 51 81 20 18 21 18 74 -34 l54 -54 45 33 c34 24 51 30 68 25 44 -14
127 -112 168 -198 39 -79 91 -255 91 -307 1 -56 18 -51 24 6 27 223 132 437
240 488 47 22 60 20 100 -15 l36 -31 49 52 c32 34 56 50 65 47 9 -4 31 -38 51
-76 38 -77 29 -71 175 -105 75 -18 120 -20 120 -6 0 17 -70 88 -118 120 -45
30 -47 33 -64 113 -22 101 -83 226 -120 247 -26 14 -29 13 -56 -13 -16 -16
-54 -71 -83 -124 -30 -52 -59 -97 -65 -100 -7 -2 -57 3 -112 11 -86 13 -109
13 -166 1 -50 -11 -74 -11 -97 -3 -30 10 -216 5 -285 -8 -31 -6 -32 -4 -79 85
-55 104 -99 161 -124 161 -9 0 -29 -12 -44 -27z"/>
<path d="M126 1655 c10 -60 47 -158 85 -222 45 -76 141 -171 209 -207 30 -16
57 -30 59 -32 2 -2 -15 -24 -37 -50 -56 -63 -86 -117 -116 -206 -25 -73 -47
-248 -32 -248 4 0 35 20 69 44 119 84 250 136 377 151 57 7 71 13 124 56 67
54 160 103 224 118 24 5 45 11 47 13 2 2 9 34 15 71 33 209 -74 348 -270 351
-41 1 -93 -3 -115 -7 l-40 -9 60 -54 60 -55 -90 7 c-110 7 -251 35 -326 63
-106 40 -224 134 -292 231 l-17 25 6 -40z m561 -410 c31 -8 71 -15 89 -15 23
0 49 -14 95 -51 35 -28 65 -55 67 -60 5 -12 -56 -11 -120 2 -76 17 -131 43
-177 84 -64 58 -55 66 46 40z"/>
<path d="M2373 1626 c-76 -99 -203 -177 -348 -215 -83 -22 -302 -48 -313 -37
-5 6 25 34 87 83 24 19 0 30 -75 38 -213 23 -347 -105 -331 -315 3 -42 9 -83
12 -92 4 -10 35 -25 73 -37 76 -23 170 -76 222 -126 30 -28 44 -34 105 -40
126 -12 277 -74 390 -160 25 -19 47 -35 50 -35 14 0 3 154 -16 220 -26 94 -61
159 -121 226 l-48 52 66 38 c124 73 237 220 279 367 25 86 16 95 -32 33z
m-433 -385 c-16 -31 -84 -77 -149 -101 -59 -23 -191 -39 -191 -24 1 5 32 33
71 62 50 36 80 52 102 52 18 0 64 9 102 19 39 10 71 17 73 15 2 -1 -1 -12 -8
-23z"/>
<path d="M1009 922 c-89 -60 -146 -111 -179 -160 -36 -55 -39 -50 90 -146 163
-122 299 -170 412 -147 101 21 265 113 373 210 l38 33 -19 35 c-37 69 -238
232 -259 211 -4 -4 11 -47 34 -96 23 -49 41 -100 41 -114 0 -37 -66 -92 -166
-140 -98 -47 -114 -47 -224 8 -76 39 -150 101 -150 127 0 9 18 57 40 107 56
128 55 130 -31 72z"/>
<path d="M1202 839 c-106 -13 -138 -53 -92 -111 26 -34 109 -86 147 -94 71
-14 218 105 197 160 -14 36 -144 59 -252 45z"/>
<path d="M185 356 c-32 -32 -33 -76 -1 -113 19 -22 32 -28 66 -28 35 0 46 6
66 30 34 43 31 55 -15 55 -40 0 -61 -13 -41 -25 15 -9 12 -25 -5 -25 -21 0
-39 43 -31 74 7 29 36 35 56 11 21 -25 42 -18 38 13 -3 25 -7 27 -55 30 -45 3
-56 -1 -78 -22z"/>
<path d="M1175 356 c-32 -32 -33 -76 -1 -113 19 -22 32 -28 66 -28 35 0 46 6
66 30 29 36 26 49 -10 53 -39 5 -63 -5 -48 -20 16 -16 15 -28 -3 -28 -21 0
-39 43 -31 74 7 29 36 35 56 11 21 -25 42 -18 38 13 -3 25 -7 27 -55 30 -45 3
-56 -1 -78 -22z"/>
<path d="M1909 378 c0 -2 -1 -38 -2 -81 -2 -66 1 -78 16 -83 34 -11 55 4 53
39 -1 22 3 32 14 32 11 0 14 -9 13 -31 -3 -36 14 -48 53 -38 19 5 23 11 18 23
-9 18 -10 61 -3 106 4 28 2 30 -34 33 -39 3 -39 3 -32 -27 6 -27 4 -31 -15
-31 -19 0 -21 4 -15 30 6 29 5 30 -29 30 -20 0 -36 -1 -37 -2z"/>
<path d="M2269 368 c-11 -10 -14 -28 -11 -74 3 -58 5 -61 37 -72 43 -16 82 -2
96 35 15 41 -3 73 -40 73 -23 0 -30 5 -33 22 -4 27 -27 34 -49 16z m71 -104
c0 -13 -4 -24 -10 -24 -5 0 -10 14 -10 31 0 17 4 28 10 24 6 -3 10 -17 10 -31z"/>
<path d="M363 315 c-7 -21 4 -32 19 -17 16 16 28 15 28 -2 0 -7 -13 -16 -30
-19 -32 -7 -41 -35 -17 -55 13 -11 87 -9 105 2 12 7 6 57 -10 89 -12 23 -86
24 -95 2z"/>
<path d="M497 322 c-1 -4 -2 -29 -2 -57 l0 -50 65 0 65 0 6 45 c4 33 7 40 13
27 5 -9 5 -28 2 -41 -8 -31 1 -33 119 -32 l90 1 3 43 c2 23 8 42 14 42 7 0 9
-15 5 -40 -4 -32 -2 -40 13 -45 34 -11 50 5 50 50 0 23 -6 47 -12 53 -7 5 -56
9 -108 8 l-95 -1 3 -41 c2 -23 -1 -45 -7 -48 -10 -7 -18 14 -23 64 -3 25 -4
25 -101 27 -53 0 -98 -2 -100 -5z m73 -57 c0 -19 -4 -35 -10 -35 -11 0 -14 53
-3 63 11 12 13 8 13 -28z m230 -1 c0 -21 -4 -33 -10 -29 -17 10 -11 65 7 65 2
0 3 -16 3 -36z"/>
<path d="M963 315 c-7 -21 4 -32 19 -17 16 16 28 15 28 -2 0 -7 -13 -16 -30
-19 -32 -7 -41 -35 -17 -55 13 -10 87 -10 104 1 11 7 3 73 -11 95 -11 18 -85
15 -93 -3z"/>
<path d="M1353 315 c-7 -21 4 -32 19 -17 16 16 28 15 28 -2 0 -7 -13 -16 -30
-19 -32 -7 -41 -35 -17 -55 13 -10 87 -10 104 1 11 7 3 73 -11 95 -11 18 -85
15 -93 -3z"/>
<path d="M1486 323 c-3 -3 -3 -18 0 -33 4 -15 1 -37 -5 -49 -13 -23 -15 -23
59 -26 73 -3 80 1 80 46 0 27 4 38 11 33 7 -4 9 -20 6 -40 -4 -26 -2 -34 12
-39 37 -11 51 4 45 49 -3 22 -7 46 -9 52 -3 11 -188 17 -199 7z m65 -86 c-8
-8 -11 -2 -11 19 0 40 14 54 18 19 2 -15 -1 -32 -7 -38z"/>
<path d="M1726 314 c-43 -43 4 -118 61 -98 39 13 41 34 4 34 -17 0 -31 5 -31
10 0 6 13 10 29 10 36 0 46 13 31 40 -13 25 -71 27 -94 4z m54 -14 c0 -5 -4
-10 -10 -10 -5 0 -10 5 -10 10 0 6 5 10 10 10 6 0 10 -4 10 -10z"/>
<path d="M2094 314 c3 -9 6 -28 6 -44 0 -43 21 -57 80 -54 28 1 53 4 55 6 1 1
0 27 -2 56 -5 49 -7 52 -33 52 -27 0 -28 -2 -23 -40 5 -33 3 -40 -11 -40 -12
0 -16 10 -16 40 0 38 -1 40 -31 40 -24 0 -30 -3 -25 -16z"/>
</g>
</svg>
